<svg xmlns="http://www.w3.org/2000/svg" version="1.1" xmlns:xlink="http://www.w3.org/1999/xlink" xmlns:svgjs="http://svgjs.dev/svgjs" width="100%" height="100%" viewBox="0 0 1000 600"><rect width="1000" height="600" x="0" y="0" fill="#eb2188"/><g><circle r="166.66666666666666" cx="380.48810831705725" cy="402.71024804922445" fill="#080a52" transform="matrix(0.5846001255215634,0,0,0.5846001255215634,0,64.57554270592894)"/><path d="M339.66963824788445 477.7102009811997L339.66963824788445 327.7102055225059L421.3065405382014 327.7102055225059L421.3065405382014 343.57330028033994L357.4672567566739 343.57330028033994L357.4672567566739 394.7935368248661L417.0208263822387 394.7935368248661L417.0208263822387 410.6268696788394L357.4672567566739 410.6268696788394L357.4672567566739 477.7102009811997L339.66963824788445 477.7102009811997Z " fill="#eb2188" transform="matrix(0.5846001255215634,0,0,0.5846001255215634,0,64.57554270592894)"/><path d="M630.4880891661578 475.22178151523815L630.4880891661578 329.38845934244443L709.8572960550413 329.38845934244443L709.8572960550413 344.8109118658768L647.7913285826917 344.8109118658768L647.7913285826917 394.6083617586105L705.6906297072471 394.6083617586105L705.6906297072471 410.0018790990721L647.7913285826917 410.0018790990721L647.7913285826917 475.22178151523815L630.4880891661578 475.22178151523815ZM740.0656270765485 391.2518805339986L734.8572941418058 378.75188149061626Q742.785534275803 373.97757630043554 753.2890056942008 371.6916968457429Q763.8214122955692 369.37688220807956 775.2797447520029 369.37688220807956L775.2797447520029 369.37688220807956Q786.1015031830793 369.37688220807956 792.6697897174492 372.2993356881296Q799.2380762518189 375.2217891681796 802.6813630253434 379.90928880944796Q806.1246497988675 384.5967884507163 807.2531219347286 390.2102139470501Q808.4105292535603 395.85257462635457 808.4105292535603 401.46600012268834L808.4105292535603 401.46600012268834Q808.4105292535603 413.9659991660706 807.7739552282028 425.8583593670663Q807.1663163858161 437.72178438509115 807.1663163858161 448.340996535372L807.1663163858161 448.340996535372Q807.1663163858161 456.06669038857353 807.7739552282028 462.9243287526514Q808.4105292535603 469.81090229969993 810.0598346828954 475.62687407682927L810.0598346828954 475.62687407682927L797.7913171032794 475.62687407682927L793.393169291719 461.04354185954986L792.3515027047704 461.04354185954986Q790.4996509946398 463.9659953395999 787.6640030635022 466.7727080877668Q784.8572903153351 469.6083560189044 780.8931702483367 471.77849474171387Q776.9579853643088 473.9775686474941 771.7496524295664 475.4243277960337Q766.5413194948237 476.9000221275441 759.8572922285705 476.9000221275441L759.8572922285705 476.9000221275441Q753.2022001452883 476.9000221275441 747.4730339170715 474.81668895364703Q741.7438676888546 472.73335577975 737.5772013410603 468.8560412616638Q733.4105349932663 465.0076619265484 731.0089148066904 459.59678271101023Q728.6072946201148 454.1859034954721 728.6072946201148 447.29932994842346L728.6072946201148 447.29932994842346Q728.6072946201148 438.1268769466823 732.3688684063177 431.9926181568743Q736.10150700955 425.8583593670663 742.8723398247155 422.2125263127465Q749.643172639881 418.5666932584266 759.1339126543007 417.00419337800383Q768.6246526687207 415.441693497581 780.0829851251544 415.441693497581L780.0829851251544 415.441693497581Q782.9765034222337 415.441693497581 785.8121513533713 415.441693497581Q788.6188641015383 415.441693497581 791.5413175815884 415.84678605917213L791.5413175815884 415.84678605917213Q792.1489564239748 409.59678653748097 792.1489564239748 404.59099988353387L792.1489564239748 404.59099988353387Q792.1489564239748 393.1326674271001 787.5771975145897 388.5609085177149Q782.9765034222337 383.9602144253589 770.9105321234133 383.9602144253589L770.9105321234133 383.9602144253589Q767.3515046180057 383.9602144253589 763.3005790020948 384.48104771883317Q759.249653386184 385.0018810123074 754.9672463065067 385.95674205034356Q750.6848392268294 386.88266790540894 746.836459891714 388.2426215050362Q742.9880805565986 389.6025751046634 740.0656270765485 391.2518805339986L740.0656270765485 391.2518805339986ZM764.4579863209265 462.3166899102647L764.4579863209265 462.3166899102647Q770.2739580980558 462.3166899102647 774.8746521904118 460.75419002984194Q779.4464110997972 459.1916901494192 782.7739571414381 456.7900699628434Q786.1015031830793 454.38844977626763 788.3005770888594 451.46599629621755Q790.4996509946398 448.54354281616753 791.5413175815884 445.85257079988384L791.5413175815884 445.85257079988384L791.5413175815884 428.54933138335Q788.6188641015383 428.34678510255446 785.5806698896049 428.23104437067127Q782.5714108606426 428.1442388217589 779.6489573805925 428.1442388217589L779.6489573805925 428.1442388217589Q773.1964115781059 428.1442388217589 767.0621527882979 428.8676183960287Q760.8989588155191 429.59099797029853 756.2114591742506 431.5875255952832Q751.5239595329824 433.55511803729706 748.7172467848154 436.9984048108214Q745.9105340366486 440.4416915843457 745.9105340366486 445.65002451908833L745.9105340366486 445.65002451908833Q745.9105340366486 452.941690627728 751.1188669713913 457.62919026899635Q756.327199906134 462.3166899102647 764.4579863209265 462.3166899102647ZM844.8688597967587 371.05512282038546L869.8688578835233 432.1083588887575L875.6848296606524 451.90002404077944L875.9163111244188 451.90002404077944L881.1246440591615 431.67433114419555L904.4464015336202 371.05512282038546L922.3572797925408 371.05512282038546L877.9996442983158 477.5076609699307L870.9105244704717 477.5076609699307L825.6848334871233 371.05512282038546L844.8688597967587 371.05512282038546ZM943.8271855568687 475.22178151523815L943.8271855568687 371.05512282038546L960.4938509480451 371.05512282038546L960.4938509480451 475.22178151523815L943.8271855568687 475.22178151523815ZM940.2681580514611 339.4000326503386L940.2681580514611 339.4000326503386Q940.2681580514611 334.59679227718703 943.5088985441898 331.15350550366276Q946.7496390369188 327.7102187301385 951.726490507895 327.7102187301385L951.726490507895 327.7102187301385Q956.7322771618421 327.7102187301385 960.2913046672495 331.15350550366276Q963.8213969896863 334.59679227718703 963.8213969896863 339.4000326503386L963.8213969896863 339.4000326503386Q963.8213969896863 344.17433784051934 960.2913046672495 347.2993376013649Q956.7322771618421 350.4243373622105 951.726490507895 350.4243373622105L951.726490507895 350.4243373622105Q946.7496390369188 350.4243373622105 943.5088985441898 347.2993376013649Q940.2681580514611 344.17433784051934 940.2681580514611 339.4000326503386ZM1061.7380561628477 455.6326626440117L1067.1489353783859 468.33520796818954Q1060.8989358566948 472.9359020605456 1052.363056880311 475.33752224712134Q1043.8271779039271 477.7102072507263 1034.4521786213904 477.7102072507263L1034.4521786213904 477.7102072507263Q1022.3572721395992 477.7102072507263 1014.0239394440109 473.8618279156109Q1005.6906067484229 470.0134485804955 1000.3954682647677 462.837523203739Q995.071394598142 455.6326626440117 992.6697744115663 445.53428378720514Q990.2681542249904 435.4359049303986 990.2681542249904 423.1384521678118L990.2681542249904 423.1384521678118Q990.2681542249904 396.6916949325076 1001.9579681451905 382.6291960087025Q1013.61884688242 368.5666970848973 1035.493845208339 368.5666970848973L1035.493845208339 368.5666970848973Q1045.4764833332624 368.5666970848973 1052.4787976121943 370.12919696532015Q1059.452176708155 371.6916968457429 1065.0656022044889 374.58521514282216L1065.0656022044889 374.58521514282216L1060.2912970143082 388.966001079306Q1055.4880566411566 386.2750290630223 1049.6431496810565 384.7125291825995Q1043.8271779039271 383.15002930217673 1037.1431506376741 383.15002930217673L1037.1431506376741 383.15002930217673Q1007.5713936415243 383.15002930217673 1007.5713936415243 423.1384521678118L1007.5713936415243 423.1384521678118Q1007.5713936415243 431.0666923018089 1009.1338935219471 438.24261767856547Q1010.69639340237 445.41854305532195 1014.3422264566898 450.9451630027433Q1017.9880595110096 456.47178295016465 1023.919772020022 459.7993289918058Q1029.8514845290345 463.12687503344694 1038.6188449691845 463.12687503344694L1038.6188449691845 463.12687503344694Q1046.1130573586197 463.12687503344694 1052.0447698676323 460.8409955787543Q1057.9764823766448 458.5551161240617 1061.7380561628477 455.6326626440117L1061.7380561628477 455.6326626440117ZM1079.4463881409727 423.1384521678118L1079.4463881409727 423.1384521678118Q1079.4463881409727 396.6916949325076 1091.223007610085 382.6291960087025Q1102.9996270791976 368.5666970848973 1125.0771716859122 368.5666970848973L1125.0771716859122 368.5666970848973Q1136.7380504231417 368.5666970848973 1145.3896701314086 372.4150764200127Q1154.0412898396755 376.2634557551281 1159.6547153360093 383.43938113188466Q1165.2681408323429 390.64424169161197 1167.9880480315974 400.7426205484185Q1170.707955230852 410.84099940522503 1170.707955230852 423.1384521678118L1170.707955230852 423.1384521678118Q1170.707955230852 449.5852094031161 1158.9313357617393 463.6477083269212Q1147.154716292627 477.7102072507263 1125.0771716859122 477.7102072507263L1125.0771716859122 477.7102072507263Q1113.416292948683 477.7102072507263 1104.764673240416 473.8618279156109Q1096.113053532149 470.0134485804955 1090.4996280358155 462.837523203739Q1084.8572673565109 455.6326626440117 1082.1662953402272 445.53428378720514Q1079.4463881409727 435.4359049303986 1079.4463881409727 423.1384521678118ZM1096.7496275575065 423.1384521678118L1096.7496275575065 423.1384521678118Q1096.7496275575065 431.0666923018089 1098.3121274379293 438.3583584104486Q1099.8746273183522 445.65002451908833 1103.2021733599934 451.0609037346265Q1106.5297194016343 456.47178295016465 1111.9405986171726 459.7993289918058Q1117.3514778327108 463.12687503344694 1125.0771716859122 463.12687503344694L1125.0771716859122 463.12687503344694Q1153.404715814318 463.35835649721326 1153.404715814318 423.1384521678118L1153.404715814318 423.1384521678118Q1153.404715814318 415.0076657530192 1151.8422159338952 407.71599964437945Q1150.2797160534724 400.4243335357398 1146.9521700118314 395.0134543202016Q1143.6246239701902 389.6025751046634 1138.1848095716812 386.3618346119347Q1132.773930356143 383.15002930217673 1125.0771716859122 383.15002930217673L1125.0771716859122 383.15002930217673Q1096.7496275575065 382.9185478384104 1096.7496275575065 423.1384521678118ZM1280.4880394220381 475.22178151523815L1263.821374030862 475.22178151523815L1263.821374030862 415.84678605917213Q1263.821374030862 399.58521322958677 1259.1338743895935 391.3676212658818Q1254.446374748325 383.15002930217673 1241.946375704943 383.15002930217673L1241.946375704943 383.15002930217673Q1230.8931358101001 383.15002930217673 1223.7172104333436 389.08174181118915Q1216.541285056587 395.0134543202016 1213.618831576537 403.98336104114725L1213.618831576537 403.98336104114725L1213.618831576537 475.22178151523815L1196.9521661853605 475.22178151523815L1196.9521661853605 371.05512282038546L1208.6130449225898 371.05512282038546L1211.7380446834354 383.75766814456335L1212.5771649895885 383.75766814456335Q1217.5829516435356 377.1025760612811 1226.0030898880361 372.82016898160384Q1234.4521633155075 368.5666970848973 1246.113042052737 368.5666970848973L1246.113042052737 368.5666970848973Q1254.6489210291206 368.5666970848973 1261.1014668316075 370.5342895269112Q1267.582947817065 372.5018819689251 1271.8364197137714 377.5076686228722Q1276.1188267934485 382.5134552768193 1278.288965516258 390.96252870429066Q1280.4880394220381 399.38266694879127 1280.4880394220381 412.3166937367355L1280.4880394220381 412.3166937367355L1280.4880394220381 475.22178151523815ZM1305.0829449472117 465.64423595190584L1305.0829449472117 465.64423595190584Q1305.0829449472117 460.0018752726013 1308.2947502569698 456.7900699628434Q1311.5354907496985 453.5493294701146 1316.946369965237 453.5493294701146L1316.946369965237 453.5493294701146Q1322.5597954615705 453.5493294701146 1325.9162766861823 456.7900699628434Q1329.2438227278235 460.0018752726013 1329.2438227278235 465.64423595190584L1329.2438227278235 465.64423595190584Q1329.2438227278235 471.055115167444 1325.9162766861823 474.3826612090852Q1322.5597954615705 477.7102072507263 1316.946369965237 477.7102072507263L1316.946369965237 477.7102072507263Q1311.5354907496985 477.7102072507263 1308.2947502569698 474.3826612090852Q1305.0829449472117 471.055115167444 1305.0829449472117 465.64423595190584ZM1359.0181260047689 475.22178151523815L1359.0181260047689 371.05512282038546L1375.6847913959455 371.05512282038546L1375.6847913959455 475.22178151523815L1359.0181260047689 475.22178151523815ZM1355.4880336823321 339.4000326503386L1355.4880336823321 339.4000326503386Q1355.4880336823321 334.59679227718703 1358.728774175061 331.15350550366276Q1361.940579484819 327.7102187301385 1366.9463661387658 327.7102187301385L1366.9463661387658 327.7102187301385Q1371.9521527927132 327.7102187301385 1375.4822451151497 331.15350550366276Q1379.0412726205573 334.59679227718703 1379.0412726205573 339.4000326503386L1379.0412726205573 339.4000326503386Q1379.0412726205573 344.17433784051934 1375.4822451151497 347.2993376013649Q1371.9521527927132 350.4243373622105 1366.9463661387658 350.4243373622105L1366.9463661387658 350.4243373622105Q1361.940579484819 350.4243373622105 1358.728774175061 347.2993376013649Q1355.4880336823321 344.17433784051934 1355.4880336823321 339.4000326503386ZM1405.4880298558614 423.1384521678118L1405.4880298558614 423.1384521678118Q1405.4880298558614 396.6916949325076 1417.264649324974 382.6291960087025Q1429.0412687940866 368.5666970848973 1451.1188134008012 368.5666970848973L1451.1188134008012 368.5666970848973Q1462.7796921380304 368.5666970848973 1471.4313118462974 372.4150764200127Q1480.0829315545643 376.2634557551281 1485.6963570508979 383.43938113188466Q1491.3097825472319 390.64424169161197 1494.0296897464862 400.7426205484185Q1496.7495969457407 410.84099940522503 1496.7495969457407 423.1384521678118L1496.7495969457407 423.1384521678118Q1496.7495969457407 449.5852094031161 1484.9729774766283 463.6477083269212Q1473.1963580075158 477.7102072507263 1451.1188134008012 477.7102072507263L1451.1188134008012 477.7102072507263Q1439.457934663572 477.7102072507263 1430.8063149553047 473.8618279156109Q1422.154695247038 470.0134485804955 1416.541269750704 462.837523203739Q1410.8989090713994 455.6326626440117 1408.207937055116 445.53428378720514Q1405.4880298558614 435.4359049303986 1405.4880298558614 423.1384521678118ZM1422.7912692723953 423.1384521678118L1422.7912692723953 423.1384521678118Q1422.7912692723953 431.0666923018089 1424.3537691528181 438.3583584104486Q1425.916269033241 445.65002451908833 1429.2438150748821 451.0609037346265Q1432.5713611165231 456.47178295016465 1437.9822403320613 459.7993289918058Q1443.3931195475996 463.12687503344694 1451.1188134008012 463.12687503344694L1451.1188134008012 463.12687503344694Q1479.4463575292068 463.35835649721326 1479.4463575292068 423.1384521678118L1479.4463575292068 423.1384521678118Q1479.4463575292068 415.0076657530192 1477.8838576487842 407.71599964437945Q1476.3213577683614 400.4243335357398 1472.9938117267202 395.0134543202016Q1469.666265685079 389.6025751046634 1464.22645128657 386.3618346119347Q1458.815572071032 383.15002930217673 1451.1188134008012 383.15002930217673L1451.1188134008012 383.15002930217673Q1422.7912692723953 382.9185478384104 1422.7912692723953 423.1384521678118Z " fill="#080a52" transform="matrix(0.5846001255215634,0,0,0.5846001255215634,0,64.57554270592894)"/></g></svg>